# xmcd
#
# Track frame offsets:
# 150
# 13171
# 34736
# 55978
# 74685
# 93262
# 107034
# 118899
# 141156
# 158290
# 174254
# 189362
# 206123
# 224687
# 240939
# 256290
# 273126
# 291562
# 304816
# 325676
# 342040
#
# Disc length: 4781 seconds
#
#
# Revision: 0
# Processed by: cddbd v1.5.2PL0 Copyright (c) Steve Scherf et al.
# Submitted via: FreeRIP 2.942 
#
DISCID=3512ab15
DTITLE=Varios - As Melhores de Roberto Carlos
DYEAR=1900
DGENRE=Antigas
TTITLE0=Por Isso Corro de Mais - Adriana Calcanhoto
TTITLE1=Debaixo Dos Caracois dos Seus Cabelos - Caetano Veloso
TTITLE2=Eu Te Amo, Te Amo, Te Amo - Marisa Monte
TTITLE3=Como é Grande o Meu Amor Por Você - Oswaldo Montenegro
TTITLE4=Alem do Horizonte - Nara Leão
TTITLE5=Custe o Que Custar - Fagner
TTITLE6=Falando Sério - Simone
TTITLE7=Detalhes - Erasmo Carlos
TTITLE8=Como Vai Você - Daniela Mercury
TTITLE9=Força Estranha - Gal  Costa
TTITLE10=Seu Corpo - Joana
TTITLE11=As Canções que Você Fez Pra Mim - Maria Bethania
TTITLE12=Sentado a Beira do Caminho - Leila Pinheiro
TTITLE13=Esqueça - Fabio Jr
TTITLE14=As Curvas da Estrada de Santos - Nara Leão
TTITLE15=Outra Vez - Simone
TTITLE16=Eu não Vou Mais Deixar Você tão Só - Paulo Ricardo
TTITLE17=De Tanto Amor - Evinha
TTITLE18=Fera Ferida - Caetano Veloso
TTITLE19=Jovens Tardes de Domingo - Gal Costa
TTITLE20=Olha - Maria Bethania
EXTD=
EXTT0=
EXTT1=
EXTT2=
EXTT3=
EXTT4=
EXTT5=
EXTT6=
EXTT7=
EXTT8=
EXTT9=
EXTT10=
EXTT11=
EXTT12=
EXTT13=
EXTT14=
EXTT15=
EXTT16=
EXTT17=
EXTT18=
EXTT19=
EXTT20=
PLAYORDER=
